<svg width="822" height="102" viewBox="0 0 822 102" fill="none" xmlns="http://www.w3.org/2000/svg">
<path d="M709.337 77.4444H675.349V102L709.337 77.4444Z" fill="#E3AC39"/>
<path d="M93.781 77.4444L129.028 102V77.4444H93.781Z" fill="#E3AC39"/>
<path d="M709.337 77.4444L675.349 102H822L784.236 61.2L822 19.6444H709.337V77.4444Z" fill="#FFCD64"/>
<path fill-rule="evenodd" clip-rule="evenodd" d="M93.781 0H709.337V19.6444V77.4444H675.349H129.028H93.781V19.6444V0Z" fill="#FFD989"/>
<path d="M129.028 102L93.781 77.4444V19.6444H0L39.6524 61.2L0 102H67.4396H129.028Z" fill="#FFCD64"/>
<path d="M253 21.68C253.613 21.68 254.067 21.7067 254.36 21.76C254.68 21.7867 255.027 21.9067 255.4 22.12C255.8 22.3333 256.08 22.6933 256.24 23.2C256.4 23.7067 256.48 24.3867 256.48 25.24C256.48 26.0933 256.4 26.7733 256.24 27.28C256.08 27.7867 255.8 28.1467 255.4 28.36C255 28.5467 254.64 28.6667 254.32 28.72C254.027 28.7467 253.56 28.76 252.92 28.76H240.68V32.8H248.56C249.2 32.8 249.667 32.8267 249.96 32.88C250.28 32.9067 250.64 33.0267 251.04 33.24C251.733 33.64 252.08 34.6933 252.08 36.4C252.08 38.2667 251.573 39.3733 250.56 39.72C250.133 39.8533 249.453 39.92 248.52 39.92H240.68V47.48C240.68 48.12 240.653 48.5867 240.6 48.88C240.573 49.1733 240.453 49.52 240.24 49.92C239.867 50.64 238.827 51 237.12 51C235.253 51 234.16 50.4933 233.84 49.48C233.68 49.0533 233.6 48.3733 233.6 47.44V25.2C233.6 23.84 233.853 22.92 234.36 22.44C234.867 21.9333 235.827 21.68 237.24 21.68H253ZM271.006 30.16C271.513 30.32 271.926 30.6 272.246 31C272.593 31.3733 272.766 31.9867 272.766 32.84C272.766 33.6933 272.513 34.6267 272.006 35.64C271.499 36.6533 270.766 37.16 269.806 37.16C269.326 37.16 268.859 37.0533 268.406 36.84C267.979 36.6267 267.406 36.52 266.686 36.52C265.966 36.52 265.286 36.7733 264.646 37.28C264.033 37.7867 263.726 38.4 263.726 39.12V47.52C263.726 48.1333 263.699 48.6 263.646 48.92C263.619 49.2133 263.499 49.56 263.286 49.96C262.886 50.6533 261.846 51 260.166 51C258.886 51 257.966 50.7733 257.406 50.32C256.979 49.9467 256.739 49.3733 256.686 48.6C256.686 48.3333 256.686 47.9467 256.686 47.44V33.4C256.686 32.7867 256.699 32.3333 256.726 32.04C256.779 31.72 256.899 31.3733 257.086 31C257.459 30.28 258.499 29.92 260.206 29.92C261.806 29.92 262.806 30.2267 263.206 30.84C263.499 31.2667 263.646 31.7067 263.646 32.16C263.779 31.9733 263.966 31.7467 264.206 31.48C264.473 31.2133 265.019 30.8533 265.846 30.4C266.673 29.9467 267.393 29.72 268.006 29.72C268.646 29.72 269.179 29.76 269.606 29.84C270.033 29.8933 270.499 30 271.006 30.16ZM284.327 50.92C281.634 50.92 279.394 49.9067 277.607 47.88C275.847 45.8267 274.967 43.3333 274.967 40.4V33.4C274.967 32.76 274.981 32.2933 275.007 32C275.061 31.7067 275.181 31.36 275.367 30.96C275.741 30.24 276.781 29.88 278.487 29.88C280.354 29.88 281.447 30.3867 281.767 31.4C281.927 31.8267 282.007 32.5067 282.007 33.44V40.44C282.007 41.5333 282.314 42.3867 282.927 43C283.567 43.6133 284.407 43.92 285.447 43.92C286.514 43.92 287.367 43.6 288.007 42.96C288.674 42.32 289.007 41.48 289.007 40.44V33.36C289.007 32.7467 289.021 32.2933 289.047 32C289.101 31.68 289.234 31.32 289.447 30.92C289.794 30.2267 290.821 29.88 292.527 29.88C294.207 29.88 295.234 30.24 295.607 30.96C295.794 31.36 295.901 31.72 295.927 32.04C295.981 32.3333 296.007 32.7867 296.007 33.4V47.56C296.007 48.1467 295.981 48.6 295.927 48.92C295.901 49.2133 295.781 49.5467 295.567 49.92C295.167 50.6133 294.141 50.96 292.487 50.96C290.861 50.96 289.861 50.64 289.487 50C289.221 49.5467 289.087 49 289.087 48.36C288.981 48.5467 288.741 48.8133 288.367 49.16C287.994 49.5067 287.634 49.8 287.287 50.04C286.381 50.6267 285.394 50.92 284.327 50.92ZM299.225 33.44C299.225 32.8267 299.238 32.3733 299.265 32.08C299.318 31.76 299.438 31.4 299.625 31C299.998 30.3067 301.038 29.96 302.745 29.96C304.025 29.96 304.932 30.1867 305.465 30.64C305.918 31.0133 306.158 31.5867 306.185 32.36C306.212 32.6267 306.225 33.0133 306.225 33.52V47.52C306.225 48.1333 306.198 48.6 306.145 48.92C306.118 49.2133 305.998 49.56 305.785 49.96C305.438 50.6533 304.412 51 302.705 51C301.025 51 299.998 50.64 299.625 49.92C299.438 49.52 299.318 49.1733 299.265 48.88C299.238 48.5867 299.225 48.12 299.225 47.48V33.44ZM305.785 26.04C305.598 26.4133 305.252 26.68 304.745 26.84C304.238 27 303.558 27.08 302.705 27.08C301.878 27.08 301.212 27 300.705 26.84C300.198 26.68 299.838 26.4 299.625 26C299.438 25.6 299.318 25.2533 299.265 24.96C299.238 24.64 299.225 24.1733 299.225 23.56C299.225 22.9467 299.238 22.4933 299.265 22.2C299.318 21.88 299.438 21.5333 299.625 21.16C299.998 20.44 301.038 20.08 302.745 20.08C304.425 20.08 305.438 20.44 305.785 21.16C305.998 21.56 306.118 21.92 306.145 22.24C306.198 22.5333 306.225 22.9867 306.225 23.6C306.225 24.2133 306.198 24.68 306.145 25C306.118 25.2933 305.998 25.64 305.785 26.04ZM321.66 37L319.06 36.84V42.36C319.06 43.08 319.167 43.6 319.38 43.92C319.62 44.24 320.047 44.4 320.66 44.4C321.3 44.4 321.78 44.4267 322.1 44.48C322.447 44.5067 322.807 44.6267 323.18 44.84C323.794 45.1867 324.1 46.08 324.1 47.52C324.1 49.2 323.727 50.2267 322.98 50.6C322.58 50.7867 322.22 50.9067 321.9 50.96C321.607 50.9867 321.167 51 320.58 51C317.807 51 315.7 50.3733 314.26 49.12C312.82 47.8667 312.1 45.7467 312.1 42.76V36.84C311.594 36.92 311.047 36.96 310.46 36.96C309.874 36.96 309.38 36.7333 308.98 36.28C308.607 35.8267 308.42 35.0533 308.42 33.96C308.42 32.8667 308.487 32.08 308.62 31.6C308.754 31.0933 308.94 30.7333 309.18 30.52C309.607 30.1733 310.14 30 310.78 30L312.1 30.16V26.04C312.1 25.4267 312.114 24.9733 312.14 24.68C312.194 24.3867 312.327 24.0667 312.54 23.72C312.887 23.0533 313.914 22.72 315.62 22.72C317.434 22.72 318.514 23.2133 318.86 24.2C318.994 24.6267 319.06 25.3067 319.06 26.24V30.16C320.234 30.0533 321.114 30 321.7 30C322.314 30 322.767 30.0267 323.06 30.08C323.38 30.1067 323.74 30.2267 324.14 30.44C324.834 30.7867 325.18 31.8133 325.18 33.52C325.18 35.2 324.82 36.2267 324.1 36.6C323.7 36.7867 323.34 36.9067 323.02 36.96C322.727 36.9867 322.274 37 321.66 37ZM345.709 43.32L346.429 42.8C347.336 42.2667 347.976 42 348.349 42C349.176 42 350.069 42.7467 351.029 44.24C351.616 45.1733 351.909 45.92 351.909 46.48C351.909 47.04 351.722 47.5067 351.349 47.88C351.002 48.2533 350.589 48.5867 350.109 48.88C349.629 49.1733 349.162 49.4533 348.709 49.72C348.282 49.9867 347.389 50.3333 346.029 50.76C344.669 51.1867 343.349 51.4 342.069 51.4C340.816 51.4 339.536 51.24 338.229 50.92C336.949 50.5733 335.616 50.0133 334.229 49.24C332.869 48.44 331.642 47.48 330.549 46.36C329.456 45.2133 328.549 43.76 327.829 42C327.136 40.2133 326.789 38.28 326.789 36.2C326.789 34.12 327.136 32.24 327.829 30.56C328.522 28.8533 329.402 27.4533 330.469 26.36C331.562 25.24 332.802 24.3067 334.189 23.56C336.802 22.12 339.429 21.4 342.069 21.4C343.322 21.4 344.589 21.6 345.869 22C347.176 22.3733 348.162 22.76 348.829 23.16L349.789 23.72C350.269 24.0133 350.642 24.2533 350.909 24.44C351.602 25 351.949 25.64 351.949 26.36C351.949 27.0533 351.669 27.7867 351.109 28.56C350.069 30 349.136 30.72 348.309 30.72C347.829 30.72 347.149 30.4267 346.269 29.84C345.149 28.9333 343.656 28.48 341.789 28.48C340.056 28.48 338.349 29.08 336.669 30.28C335.869 30.8667 335.202 31.6933 334.669 32.76C334.136 33.8267 333.869 35.04 333.869 36.4C333.869 37.7333 334.136 38.9333 334.669 40C335.202 41.0667 335.882 41.9067 336.709 42.52C338.336 43.6933 340.029 44.28 341.789 44.28C342.616 44.28 343.389 44.1733 344.109 43.96C344.856 43.7467 345.389 43.5333 345.709 43.32ZM367.436 32.16C367.596 30.6667 368.65 29.92 370.596 29.92C371.636 29.92 372.41 30 372.916 30.16C373.423 30.32 373.77 30.6 373.956 31C374.17 31.4 374.29 31.76 374.316 32.08C374.37 32.3733 374.396 32.8267 374.396 33.44V47.44C374.396 48.0533 374.37 48.52 374.316 48.84C374.29 49.1333 374.183 49.48 373.996 49.88C373.623 50.5733 372.703 50.92 371.236 50.92C369.796 50.92 368.823 50.7467 368.316 50.4C367.836 50.0267 367.556 49.4933 367.476 48.8C366.49 50.2133 364.836 50.92 362.516 50.92C360.223 50.92 358.09 49.8667 356.116 47.76C354.143 45.6533 353.156 43.2133 353.156 40.44C353.156 37.64 354.143 35.2 356.116 33.12C358.116 31.0133 360.303 29.96 362.676 29.96C363.583 29.96 364.41 30.12 365.156 30.44C365.903 30.76 366.423 31.0667 366.716 31.36C367.01 31.6267 367.25 31.8933 367.436 32.16ZM360.156 40.48C360.156 41.36 360.503 42.16 361.196 42.88C361.89 43.5733 362.73 43.92 363.716 43.92C364.703 43.92 365.516 43.56 366.156 42.84C366.823 42.12 367.156 41.3333 367.156 40.48C367.156 39.6 366.836 38.7867 366.196 38.04C365.583 37.2933 364.743 36.92 363.676 36.92C362.636 36.92 361.783 37.2933 361.116 38.04C360.476 38.7867 360.156 39.6 360.156 40.48ZM391.904 30.16C392.411 30.32 392.824 30.6 393.144 31C393.491 31.3733 393.664 31.9867 393.664 32.84C393.664 33.6933 393.411 34.6267 392.904 35.64C392.398 36.6533 391.664 37.16 390.704 37.16C390.224 37.16 389.758 37.0533 389.304 36.84C388.878 36.6267 388.304 36.52 387.584 36.52C386.864 36.52 386.184 36.7733 385.544 37.28C384.931 37.7867 384.624 38.4 384.624 39.12V47.52C384.624 48.1333 384.598 48.6 384.544 48.92C384.518 49.2133 384.398 49.56 384.184 49.96C383.784 50.6533 382.744 51 381.064 51C379.784 51 378.864 50.7733 378.304 50.32C377.878 49.9467 377.638 49.3733 377.584 48.6C377.584 48.3333 377.584 47.9467 377.584 47.44V33.4C377.584 32.7867 377.598 32.3333 377.624 32.04C377.678 31.72 377.798 31.3733 377.984 31C378.358 30.28 379.398 29.92 381.104 29.92C382.704 29.92 383.704 30.2267 384.104 30.84C384.398 31.2667 384.544 31.7067 384.544 32.16C384.678 31.9733 384.864 31.7467 385.104 31.48C385.371 31.2133 385.918 30.8533 386.744 30.4C387.571 29.9467 388.291 29.72 388.904 29.72C389.544 29.72 390.078 29.76 390.504 29.84C390.931 29.8933 391.398 30 391.904 30.16ZM408.775 21.16C408.988 20.76 409.348 20.48 409.855 20.32C410.361 20.16 411.028 20.08 411.855 20.08C412.708 20.08 413.388 20.16 413.895 20.32C414.401 20.48 414.748 20.76 414.935 21.16C415.148 21.56 415.268 21.92 415.295 22.24C415.348 22.5333 415.375 22.9867 415.375 23.6V47.48C415.375 48.0933 415.348 48.56 415.295 48.88C415.268 49.1733 415.148 49.5067 414.935 49.88C414.535 50.6 413.401 50.96 411.535 50.96C409.695 50.96 408.668 50.3067 408.455 49C407.335 50.28 405.775 50.92 403.775 50.92C401.375 50.92 399.188 49.88 397.215 47.8C395.241 45.6933 394.255 43.2533 394.255 40.48C394.255 37.68 395.241 35.2267 397.215 33.12C399.215 31.0133 401.401 29.96 403.775 29.96C405.748 29.96 407.281 30.6267 408.375 31.96V23.56C408.375 22.9467 408.388 22.4933 408.415 22.2C408.468 21.88 408.588 21.5333 408.775 21.16ZM402.295 42.88C402.988 43.6 403.828 43.96 404.815 43.96C405.801 43.96 406.615 43.6 407.255 42.88C407.921 42.16 408.255 41.3733 408.255 40.52C408.255 39.64 407.935 38.8267 407.295 38.08C406.681 37.3333 405.841 36.96 404.775 36.96C403.708 36.96 402.855 37.3333 402.215 38.08C401.575 38.8 401.255 39.6 401.255 40.48C401.255 41.36 401.601 42.16 402.295 42.88ZM442.438 21.32C446.385 21.32 449.811 22.7467 452.718 25.6C455.625 28.4533 457.078 32 457.078 36.24C457.078 40.4533 455.691 44.0533 452.918 47.04C450.145 50 446.731 51.48 442.678 51.48C438.625 51.48 435.171 50.0133 432.318 47.08C429.491 44.1467 428.078 40.6533 428.078 36.6C428.078 34.3867 428.478 32.32 429.278 30.4C430.078 28.4533 431.145 26.8267 432.478 25.52C433.811 24.2133 435.345 23.1867 437.078 22.44C438.811 21.6933 440.598 21.32 442.438 21.32ZM435.158 36.4C435.158 38.7733 435.918 40.7067 437.438 42.2C438.985 43.6667 440.705 44.4 442.598 44.4C444.491 44.4 446.198 43.68 447.718 42.24C449.238 40.8 449.998 38.8667 449.998 36.44C449.998 34.0133 449.225 32.0667 447.678 30.6C446.158 29.1333 444.451 28.4 442.558 28.4C440.665 28.4 438.958 29.1467 437.438 30.64C435.918 32.1067 435.158 34.0267 435.158 36.4ZM473.814 21.16C474.027 20.76 474.387 20.48 474.894 20.32C475.4 20.16 476.067 20.08 476.894 20.08C477.747 20.08 478.427 20.16 478.934 20.32C479.44 20.48 479.787 20.76 479.974 21.16C480.187 21.56 480.307 21.92 480.334 22.24C480.387 22.5333 480.414 22.9867 480.414 23.6V47.48C480.414 48.0933 480.387 48.56 480.334 48.88C480.307 49.1733 480.187 49.5067 479.974 49.88C479.574 50.6 478.44 50.96 476.574 50.96C474.734 50.96 473.707 50.3067 473.494 49C472.374 50.28 470.814 50.92 468.814 50.92C466.414 50.92 464.227 49.88 462.254 47.8C460.28 45.6933 459.294 43.2533 459.294 40.48C459.294 37.68 460.28 35.2267 462.254 33.12C464.254 31.0133 466.44 29.96 468.814 29.96C470.787 29.96 472.32 30.6267 473.414 31.96V23.56C473.414 22.9467 473.427 22.4933 473.454 22.2C473.507 21.88 473.627 21.5333 473.814 21.16ZM467.334 42.88C468.027 43.6 468.867 43.96 469.854 43.96C470.84 43.96 471.654 43.6 472.294 42.88C472.96 42.16 473.294 41.3733 473.294 40.52C473.294 39.64 472.974 38.8267 472.334 38.08C471.72 37.3333 470.88 36.96 469.814 36.96C468.747 36.96 467.894 37.3333 467.254 38.08C466.614 38.8 466.294 39.6 466.294 40.48C466.294 41.36 466.64 42.16 467.334 42.88ZM502.809 30.16C504.383 30.8533 505.169 31.6933 505.169 32.68C505.169 33.16 505.063 33.6133 504.849 34.04C504.636 34.4667 504.529 34.6933 504.529 34.72L494.049 58.16C493.836 58.6667 493.649 59.0533 493.489 59.32C493.356 59.5867 493.129 59.84 492.809 60.08C492.489 60.32 492.089 60.44 491.609 60.44C491.129 60.44 490.423 60.24 489.489 59.84C487.916 59.1467 487.129 58.32 487.129 57.36C487.129 56.72 488.409 53.6667 490.969 48.2L483.009 34.8C482.476 33.92 482.209 33.2667 482.209 32.84C482.209 31.9867 482.929 31.1333 484.369 30.28C485.276 29.7467 485.983 29.48 486.489 29.48C486.996 29.48 487.409 29.5867 487.729 29.8C488.049 30.0133 488.276 30.24 488.409 30.48C488.569 30.6933 489.303 31.9333 490.609 34.2C491.943 36.44 493.209 38.5333 494.409 40.48C494.543 40.0533 495.263 38.4133 496.569 35.56C497.876 32.68 498.569 31.1467 498.649 30.96C498.756 30.7733 498.916 30.5467 499.129 30.28C499.476 29.8267 499.956 29.6 500.569 29.6C501.209 29.6 501.956 29.7867 502.809 30.16ZM506.729 49.12C506.222 48.8 505.969 48.2933 505.969 47.6C505.969 46.9067 506.475 45.8533 507.489 44.44C507.782 43.9867 508.249 43.76 508.889 43.76C509.555 43.76 510.449 44.0933 511.569 44.76C512.689 45.4 513.702 45.72 514.609 45.72C516.235 45.72 517.049 45.4 517.049 44.76C517.049 44.2533 516.155 43.88 514.369 43.64C512.689 43.4 511.022 42.7733 509.369 41.76C508.595 41.28 507.955 40.5333 507.449 39.52C506.942 38.48 506.689 37.2533 506.689 35.84C506.689 31.6267 509.582 29.52 515.369 29.52C517.262 29.52 519.209 29.9733 521.209 30.88C522.142 31.3067 522.609 31.84 522.609 32.48C522.609 33.12 522.315 33.9067 521.729 34.84C521.142 35.7733 520.542 36.24 519.929 36.24C519.609 36.24 519.009 36.04 518.129 35.64C517.275 35.24 516.342 35.04 515.329 35.04C513.755 35.04 512.969 35.3333 512.969 35.92C512.969 36.72 513.875 37.24 515.689 37.48C517.449 37.6667 519.155 38.1733 520.809 39C521.582 39.3733 522.222 40.0267 522.729 40.96C523.262 41.8667 523.529 43.0133 523.529 44.4C523.529 45.7867 523.262 46.9733 522.729 47.96C522.222 48.92 521.502 49.64 520.569 50.12C518.862 50.9467 516.715 51.36 514.129 51.36C511.569 51.36 509.102 50.6133 506.729 49.12ZM526.299 49.12C525.792 48.8 525.539 48.2933 525.539 47.6C525.539 46.9067 526.046 45.8533 527.059 44.44C527.352 43.9867 527.819 43.76 528.459 43.76C529.126 43.76 530.019 44.0933 531.139 44.76C532.259 45.4 533.272 45.72 534.179 45.72C535.806 45.72 536.619 45.4 536.619 44.76C536.619 44.2533 535.726 43.88 533.939 43.64C532.259 43.4 530.592 42.7733 528.939 41.76C528.166 41.28 527.526 40.5333 527.019 39.52C526.512 38.48 526.259 37.2533 526.259 35.84C526.259 31.6267 529.152 29.52 534.939 29.52C536.832 29.52 538.779 29.9733 540.779 30.88C541.712 31.3067 542.179 31.84 542.179 32.48C542.179 33.12 541.886 33.9067 541.299 34.84C540.712 35.7733 540.112 36.24 539.499 36.24C539.179 36.24 538.579 36.04 537.699 35.64C536.846 35.24 535.912 35.04 534.899 35.04C533.326 35.04 532.539 35.3333 532.539 35.92C532.539 36.72 533.446 37.24 535.259 37.48C537.019 37.6667 538.726 38.1733 540.379 39C541.152 39.3733 541.792 40.0267 542.299 40.96C542.832 41.8667 543.099 43.0133 543.099 44.4C543.099 45.7867 542.832 46.9733 542.299 47.96C541.792 48.92 541.072 49.64 540.139 50.12C538.432 50.9467 536.286 51.36 533.699 51.36C531.139 51.36 528.672 50.6133 526.299 49.12ZM566.029 37.96C566.029 39.5867 565.616 40.8 564.789 41.6C563.989 42.3733 563.096 42.76 562.109 42.76H552.629C552.629 43.5067 553.069 44.1333 553.949 44.64C554.829 45.1467 555.709 45.4 556.589 45.4C558.136 45.4 559.349 45.24 560.229 44.92L560.669 44.76C561.309 44.4667 561.843 44.32 562.269 44.32C563.123 44.32 563.856 44.92 564.469 46.12C564.816 46.84 564.989 47.4533 564.989 47.96C564.989 50.3333 562.149 51.52 556.469 51.52C554.496 51.52 552.736 51.1867 551.189 50.52C549.669 49.8267 548.483 48.92 547.629 47.8C545.949 45.64 545.109 43.2267 545.109 40.56C545.109 37.2 546.189 34.52 548.349 32.52C550.536 30.4933 553.256 29.48 556.509 29.48C560.216 29.48 562.936 30.7867 564.669 33.4C565.576 34.7867 566.029 36.3067 566.029 37.96ZM557.589 39.12C558.603 39.12 559.109 38.6933 559.109 37.84C559.109 37.2267 558.869 36.7333 558.389 36.36C557.936 35.9867 557.269 35.8 556.389 35.8C555.536 35.8 554.683 36.16 553.829 36.88C552.976 37.5733 552.549 38.32 552.549 39.12H557.589ZM587.028 30.16C588.601 30.8533 589.388 31.6933 589.388 32.68C589.388 33.16 589.281 33.6133 589.068 34.04C588.855 34.4667 588.748 34.6933 588.748 34.72L578.268 58.16C578.055 58.6667 577.868 59.0533 577.708 59.32C577.575 59.5867 577.348 59.84 577.028 60.08C576.708 60.32 576.308 60.44 575.828 60.44C575.348 60.44 574.641 60.24 573.708 59.84C572.135 59.1467 571.348 58.32 571.348 57.36C571.348 56.72 572.628 53.6667 575.188 48.2L567.228 34.8C566.695 33.92 566.428 33.2667 566.428 32.84C566.428 31.9867 567.148 31.1333 568.588 30.28C569.495 29.7467 570.201 29.48 570.708 29.48C571.215 29.48 571.628 29.5867 571.948 29.8C572.268 30.0133 572.495 30.24 572.628 30.48C572.788 30.6933 573.521 31.9333 574.828 34.2C576.161 36.44 577.428 38.5333 578.628 40.48C578.761 40.0533 579.481 38.4133 580.788 35.56C582.095 32.68 582.788 31.1467 582.868 30.96C582.975 30.7733 583.135 30.5467 583.348 30.28C583.695 29.8267 584.175 29.6 584.788 29.6C585.428 29.6 586.175 29.7867 587.028 30.16Z" fill="#3B2921"/>
</svg>
