<svg width="284" height="6" viewBox="0 0 284 6" fill="none" xmlns="http://www.w3.org/2000/svg">
<rect width="20.2185" height="6" rx="3" transform="matrix(-1 0 0 1 284 0)" fill="#767C69"/>
<rect width="20.2185" height="6" rx="3" transform="matrix(-1 0 0 1 188.08 0)" fill="#B4CA87"/>
<rect width="20.2185" height="6" rx="3" transform="matrix(-1 0 0 1 92.1589 0)" fill="#B4CA87"/>
<rect width="20.2185" height="6" rx="3" transform="matrix(-1 0 0 1 236.04 0)" fill="#B4CA87"/>
<rect width="20.2185" height="6" rx="3" transform="matrix(-1 0 0 1 140.119 0)" fill="#B4CA87"/>
<rect width="20.2185" height="6" rx="3" transform="matrix(-1 0 0 1 44.1987 0)" fill="#B4CA87"/>
<rect width="20.2185" height="6" rx="3" transform="matrix(-1 0 0 1 260.02 0)" fill="#767C69"/>
<rect width="20.2185" height="6" rx="3" transform="matrix(-1 0 0 1 164.099 0)" fill="#B4CA87"/>
<rect width="20.2185" height="6" rx="3" transform="matrix(-1 0 0 1 68.1787 0)" fill="#B4CA87"/>
<rect width="20.2185" height="6" rx="3" transform="matrix(-1 0 0 1 212.06 0)" fill="#B4CA87"/>
<rect width="20.2185" height="6" rx="3" transform="matrix(-1 0 0 1 116.139 0)" fill="#B4CA87"/>
<rect width="20.2185" height="6" rx="3" transform="matrix(-1 0 0 1 20.2185 0)" fill="#B4CA87"/>
</svg>
