<svg width="1719" height="2193" viewBox="0 0 1719 2193" fill="none" xmlns="http://www.w3.org/2000/svg">
<path d="M264.667 51.9835C264.667 33.7876 264.667 24.6896 268.208 17.7397C271.323 11.6264 276.294 6.65606 282.407 3.54116C289.357 0 298.455 0 316.651 0H1359.57C1377.77 0 1386.87 0 1393.82 3.54116C1399.93 6.65606 1404.9 11.6264 1408.02 17.7397C1411.56 24.6896 1411.56 33.7876 1411.56 51.9835V2140.21C1411.56 2158.41 1411.56 2167.5 1408.02 2174.45C1404.9 2180.57 1399.93 2185.54 1393.82 2188.65C1386.87 2192.19 1377.77 2192.19 1359.57 2192.19H316.651C298.455 2192.19 289.357 2192.19 282.407 2188.65C276.294 2185.54 271.323 2180.57 268.208 2174.45C264.667 2167.5 264.667 2158.41 264.667 2140.21V51.9835Z" fill="#4E3E45"/>
<path d="M1483.39 162.385H1412.32V213.872L1483.39 162.385Z" fill="#4E3E45"/>
<path d="M196.119 162.385L269.828 213.872V162.385H196.119Z" fill="#4E3E45"/>
<path d="M1483.39 162.385L1412.32 213.872H1719L1640.03 128.323L1719 41.1903H1483.39V162.385Z" fill="#4E3E45"/>
<path fill-rule="evenodd" clip-rule="evenodd" d="M196.119 0H1483.39V41.1903V162.385H1412.32H269.828H196.119V41.1903V0Z" fill="#4E3E45"/>
<path d="M269.828 213.872L196.119 162.385V41.1903H0L82.9227 128.323L0 213.872H269.828Z" fill="#4E3E45"/>
</svg>
